<svg xmlns="http://www.w3.org/2000/svg" width="800" height="800" viewBox="0 0 48 48"><path fill="white" fill-rule="nonzero" d="M32.252 38.5a1.75 1.75 0 0 1 .144 3.494l-.144.006h-16.5a1.75 1.75 0 0 1-.144-3.494l.144-.006h16.5Zm6-5.995a1.75 1.75 0 0 1 .143 3.494l-.143.006h-28.5a1.75 1.75 0 0 1-.143-3.495l.143-.005h28.5ZM24 6.01c6.337 0 9.932 4.194 10.455 9.26h.16c4.078 0 7.384 3.297 7.384 7.365S38.693 30 34.615 30h-21.23c-4.078 0-7.384-3.297-7.384-7.365s3.306-7.365 7.384-7.365h.16c.526-5.1 4.118-9.26 10.455-9.26Z"/></svg>
