<svg xmlns="http://www.w3.org/2000/svg" width="800" height="800" fill="none" viewBox="0 0 48 48"><path fill="white" d="M24 38a1.75 1.75 0 0 1 1.744 1.606l.006.144v3.5a1.75 1.75 0 0 1-3.494.144l-.006-.144v-3.5c0-.967.784-1.75 1.75-1.75Zm11.856-4.61.125.112 2.5 2.475a1.75 1.75 0 0 1-2.337 2.6l-.125-.113-2.5-2.474a1.75 1.75 0 0 1 2.337-2.6Zm-21.383.115a1.75 1.75 0 0 1 .115 2.35l-.113.125-2.473 2.477a1.75 1.75 0 0 1-2.59-2.348l.113-.125 2.473-2.477a1.75 1.75 0 0 1 2.475-.002ZM24 13.081c6.03 0 10.92 4.888 10.92 10.919 0 6.03-4.89 10.92-10.92 10.92S13.08 30.03 13.08 24 17.97 13.08 24 13.08ZM8.25 22.25a1.75 1.75 0 0 1 .144 3.494l-.144.006h-3.5a1.75 1.75 0 0 1-.144-3.494l.144-.006h3.5Zm35 0a1.75 1.75 0 0 1 .144 3.494l-.144.006h-3.5a1.75 1.75 0 0 1-.144-3.494l.144-.006h3.5ZM11.836 9.428l.125.114 2.475 2.475a1.75 1.75 0 0 1-2.35 2.588l-.125-.113-2.475-2.475a1.75 1.75 0 0 1 2.35-2.589Zm26.623.11a1.75 1.75 0 0 1 .116 2.35l-.114.126-2.472 2.477a1.75 1.75 0 0 1-2.59-2.348l.112-.125 2.473-2.477a1.75 1.75 0 0 1 2.475-.002ZM24 3a1.75 1.75 0 0 1 1.744 1.606l.006.144v3.5a1.75 1.75 0 0 1-3.494.144l-.006-.144v-3.5c0-.966.784-1.75 1.75-1.75Z"/></svg>
