<svg xmlns="http://www.w3.org/2000/svg" width="800" height="800" viewBox="0 0 48 48"><path fill="white" fill-rule="nonzero" d="M26.001 12c6.337 0 9.932 4.195 10.455 9.26h.16c4.078 0 7.384 3.298 7.384 7.365 0 3.987-3.175 7.233-7.14 7.361l-.313.004-4.3 7.159a1.75 1.75 0 0 1-3.075-1.662l.075-.14 3.217-5.357h-3.917l-4.3 7.159a1.75 1.75 0 0 1-3.075-1.662l.075-.14 3.217-5.357h-3.917l-4.3 7.159a1.75 1.75 0 0 1-3.075-1.662l.075-.14 3.217-5.357h-1.078c-4.078 0-7.384-3.297-7.384-7.365 0-4.067 3.306-7.365 7.384-7.365h.16c.526-5.099 4.118-9.26 10.455-9.26ZM7.568 20.19a1.75 1.75 0 0 1-.499 2.3l-.142.091-1.299.75a1.75 1.75 0 0 1-1.892-2.94l.142-.091 1.3-.75a1.75 1.75 0 0 1 2.39.64Zm14.14-9.528c-3.801 1.22-6.508 4.091-7.62 7.922l-.094.34-.115.476-.413.077a9.277 9.277 0 0 0-3.341 1.431 7.883 7.883 0 0 1 11.584-10.246ZM5.504 9.98l.133.055 1.359.634a1.75 1.75 0 0 1-1.347 3.228l-.132-.056-1.36-.634A1.75 1.75 0 0 1 5.504 9.98Zm19.11-5.762a1.75 1.75 0 0 1 .508 2.316l-.078.121-.86 1.229a1.75 1.75 0 0 1-2.945-1.887l.078-.12.86-1.23a1.75 1.75 0 0 1 2.438-.43Zm-10.291-.42.065.156.513 1.41a1.75 1.75 0 0 1-3.224 1.352l-.065-.155-.513-1.41a1.75 1.75 0 0 1 3.224-1.352Z"/></svg>
