<svg xmlns="http://www.w3.org/2000/svg" width="800" height="800" viewBox="0 0 48 48"><path fill="white" fill-rule="nonzero" d="M26.001 16.01c6.337 0 9.932 4.194 10.455 9.26h.16c4.078 0 7.384 3.297 7.384 7.365S40.694 40 36.616 40h-21.23c-4.078 0-7.384-3.297-7.384-7.365s3.306-7.365 7.384-7.365h.16c.526-5.1 4.118-9.26 10.455-9.26Zm-12.82-8.008c1.59.086 3.133.544 4.525 1.348a10.112 10.112 0 0 1 4.418 5.193c-4.016 1.144-6.877 4.083-8.027 8.049l-.092.332-.115.476-.413.077a9.353 9.353 0 0 0-5.616 3.632l-.31-.172a10.122 10.122 0 0 1-3.283-3.028 1.501 1.501 0 0 1 .73-2.265c3.285-1.176 5.055-2.5 6.067-4.432 1.106-2.11 1.31-4.348.576-7.354a1.502 1.502 0 0 1 1.54-1.856Z"/></svg>
