<svg xmlns="http://www.w3.org/2000/svg" data-name="Layer 1" viewBox="0 0 64 64"><path fill="white" d="M32 53a21 21 0 0 1-19.76-13.89 1 1 0 0 1 1.11-1.33 15.54 15.54 0 0 0 3.93.17A16.08 16.08 0 0 0 32 22q0-.64-.06-1.29a16 16 0 0 0-2.93-8 1 1 0 0 1-.1-1 1 1 0 0 1 .8-.58A19 19 0 0 1 32 11a21 21 0 1 1 0 42ZM14.75 40a19 19 0 1 0 16.84-27A18 18 0 0 1 34 20.56c0 .48.06 1 .06 1.46A18.1 18.1 0 0 1 17.44 40a18.59 18.59 0 0 1-2.69 0ZM12 23.24a1 1 0 0 1-.71-.29l-4.24-4.24a1 1 0 0 1 0-1.42l4.24-4.24a1 1 0 0 1 1.42 0L17 17.29a1 1 0 0 1 0 1.42L12.71 23a1 1 0 0 1-.71.24ZM9.17 18 12 20.83 14.83 18 12 15.17Z"/><path fill="white" d="M25 21a1 1 0 0 1-1-1v-4a1 1 0 0 1 2 0v4a1 1 0 0 1-1 1Z"/><path fill="white" d="M27 19h-4a1 1 0 0 1 0-2h4a1 1 0 0 1 0 2ZM20 30h-4a1 1 0 0 1 0-2h4a1 1 0 0 1 0 2Z"/><path fill="white" d="M18 32a1 1 0 0 1-1-1v-4a1 1 0 0 1 2 0v4a1 1 0 0 1-1 1Z"/></svg>
