<svg xmlns="http://www.w3.org/2000/svg" width="64" height="64" fill="none" viewBox="0 0 64 64"><path fill="white" d="M32 21.75A10.25 10.25 0 1 0 42.25 32 10.26 10.26 0 0 0 32 21.75Zm0 18A7.75 7.75 0 1 1 39.75 32 7.76 7.76 0 0 1 32 39.75ZM32 13.25A1.25 1.25 0 0 0 33.25 12V4a1.25 1.25 0 0 0-2.5 0v8A1.25 1.25 0 0 0 32 13.25ZM46.14 19.11a1.25 1.25 0 0 0 .89-.37l5.65-5.66a1.245 1.245 0 0 0-1.76-1.76L45.26 17a1.248 1.248 0 0 0 0 1.77 1.21 1.21 0 0 0 .88.34ZM60 30.75h-8a1.25 1.25 0 0 0 0 2.5h8a1.25 1.25 0 0 0 0-2.5ZM47 45.26A1.25 1.25 0 1 0 45.26 47l5.66 5.65a1.23 1.23 0 0 0 1.76 0 1.24 1.24 0 0 0 0-1.76L47 45.26ZM32 50.75A1.25 1.25 0 0 0 30.75 52v8a1.25 1.25 0 0 0 2.5 0v-8A1.25 1.25 0 0 0 32 50.75ZM17 45.26l-5.65 5.66a1.241 1.241 0 0 0 0 1.76 1.23 1.23 0 0 0 1.76 0L18.74 47A1.249 1.249 0 1 0 17 45.26ZM13.25 32A1.25 1.25 0 0 0 12 30.75H4a1.25 1.25 0 0 0 0 2.5h8A1.25 1.25 0 0 0 13.25 32ZM17 18.74a1.25 1.25 0 0 0 1.368.276 1.21 1.21 0 0 0 .402-.276 1.25 1.25 0 0 0 0-1.77l-5.66-5.65a1.244 1.244 0 1 0-1.76 1.76L17 18.74Z"/></svg>
