<svg xmlns="http://www.w3.org/2000/svg" width="800" height="800" viewBox="0 0 48 48"><path fill="white" fill-rule="nonzero" d="M27.558 26.29a1.25 1.25 0 0 1 .171 1.76l-2.834 3.444h4.858c1.052 0 1.633 1.22.971 2.037l-6.485 8.005a1.25 1.25 0 0 1-1.943-1.574l4.835-5.968h-4.884c-1.056 0-1.636-1.229-.965-2.044l4.517-5.489a1.25 1.25 0 0 1 1.76-.17Zm-1.557-16.272c6.337 0 9.932 4.194 10.455 9.26h.16c4.078 0 7.384 3.298 7.384 7.365 0 4.068-3.306 7.365-7.384 7.365h-3.863c.876-2.041-.586-4.514-3-4.514h-.622l.143-.174a3.25 3.25 0 1 0-5.02-4.13l-4.516 5.489a3.205 3.205 0 0 0-.485 3.33h-3.867c-4.078 0-7.384-3.298-7.384-7.366 0-3.986 3.175-7.233 7.14-7.361l.404-.004c.526-5.099 4.118-9.26 10.455-9.26ZM19.998 4a9.431 9.431 0 0 1 7.787 4.104A15.04 15.04 0 0 0 25.998 8c-6.078 0-10.476 3.44-11.96 8.62l-.08.29-.116.476-.413.076a9.38 9.38 0 0 0-6.907 6.07 6.564 6.564 0 0 1 4.04-11.737h.142A9.44 9.44 0 0 1 19.998 4Z"/></svg>
