<svg xmlns="http://www.w3.org/2000/svg" width="24" height="24" fill="none" viewBox="0 0 24 24"><path fill="white" fill-rule="evenodd" d="M22.803 3.168a1 1 0 0 0-.652-.909l-.005-.002a14.524 14.524 0 0 0-.542-.18A24.862 24.862 0 0 0 15.404 1c-3.757-.157-8.524.615-11.96 4.538-2.842 3.245-3.27 8.014-.507 11.364-.845 1.608-1.517 3.294-1.907 4.855a1 1 0 1 0 1.94.485c.31-1.242.832-2.603 1.497-3.94 1.76 1.16 4.191 1.58 6.421 1.114 2.758-.576 5.316-2.53 6.09-6.21.81-3.848 2.191-6.143 3.315-7.458a8.043 8.043 0 0 1 1.42-1.33 4.404 4.404 0 0 1 .488-.303l.012-.006a1 1 0 0 0 .59-.94Zm-7.48-.17c-3.47-.145-7.507.584-10.374 3.858-2.11 2.408-2.473 5.695-.915 8.155 1.264-1.978 2.803-3.77 4.411-4.843a1 1 0 0 1 1.11 1.664c-1.335.89-2.745 2.509-3.957 4.448l-.162.262c1.254.887 3.185 1.305 5.043.917 2.069-.433 3.949-1.845 4.542-4.665.874-4.152 2.395-6.758 3.752-8.345.28-.328.552-.61.808-.853a22.818 22.818 0 0 0-4.259-.599Z" clip-rule="evenodd"/></svg>
